<svg width="20" height="20" viewBox="0 0 20 20" fill="none" xmlns="http://www.w3.org/2000/svg">
<path d="M17.4535 8.86961C17.6466 10.596 17.2344 12.6327 16.2873 14.0889C15.3403 15.5452 13.917 16.6276 12.2607 17.1512C10.6044 17.6748 8.81761 17.6072 7.20556 16.96C5.5935 16.3127 4.25612 15.1259 3.42176 13.6023C2.5874 12.0787 2.30781 10.3126 2.63074 8.60577C2.95367 6.89891 3.85909 5.35708 5.19239 4.24354C6.52569 3.13001 8.20419 2.51383 9.94128 2.50023C11.6784 2.48663 13.3663 3.07644 14.7169 4.16895L12.5044 6.16228C11.7114 5.64499 10.7777 5.38596 9.83159 5.42078C8.88546 5.45561 7.97333 5.78258 7.22054 6.35676C6.46775 6.93094 5.91125 7.72416 5.62751 8.62742C5.34377 9.53067 5.34671 10.4996 5.63593 11.4011C5.92515 12.3027 6.48646 13.0925 7.24272 13.6621C7.99898 14.2317 8.91308 14.5531 9.8594 14.5822C10.8057 14.6113 11.7378 14.3466 12.5276 13.8245C13.3174 13.3024 13.9262 12.5485 14.2702 11.6665H10.8327V8.86961H17.4535Z" stroke="#E76220" stroke-width="1.33333" stroke-linecap="round" stroke-linejoin="round"/>
</svg>
