<svg width="20" height="20" viewBox="0 0 20 20" fill="none" xmlns="http://www.w3.org/2000/svg">
<path d="M16.6667 11.2037V13.5C16.6667 14.9001 16.6667 15.6002 16.3942 16.135C16.1545 16.6054 15.772 16.9878 15.3016 17.2275C14.7669 17.5 14.0668 17.5 12.6667 17.5H6.5C5.09987 17.5 4.3998 17.5 3.86502 17.2275C3.39462 16.9878 3.01217 16.6054 2.77248 16.135C2.5 15.6002 2.5 14.9001 2.5 13.5V7.33332C2.5 5.93319 2.5 5.23312 2.77248 4.69834C3.01217 4.22794 3.39462 3.84549 3.86502 3.6058C4.3998 3.33332 5.09987 3.33332 6.5 3.33332H8.7963M17.5756 2.49756L13.0874 2.49756M17.5756 2.49756L17.5751 7.05427M17.5756 2.49756L10.4904 9.58332" stroke="#E76220" stroke-width="1.33333" stroke-linecap="round" stroke-linejoin="round"/>
</svg>
