<svg width="40" height="40" viewBox="0 0 40 40" fill="none" xmlns="http://www.w3.org/2000/svg">
<path d="M20.13 34.7712C12.044 34.7712 5.48897 28.2162 5.48897 20.1302C5.48897 12.0441 12.044 5.48914 20.13 5.48914C28.216 5.48914 34.771 12.0441 34.771 20.1302C34.771 28.2162 28.216 34.7712 20.13 34.7712Z" fill="url(#paint0_linear_1181_7445)" fill-opacity="0.24"/>
<path d="M27.3204 7.32056C30.4311 9.1165 32.773 11.9932 33.9006 15.4035C35.0283 18.8138 34.863 22.5196 33.4362 25.8159C32.0094 29.1123 29.4206 31.7691 26.1624 33.2809C22.9042 34.7928 19.204 35.0542 15.7656 34.0154C12.3272 32.9766 9.39066 30.7101 7.51462 27.6471C5.63858 24.584 4.95396 20.9383 5.59101 17.4033C6.22806 13.8684 8.14232 10.691 10.9696 8.4756C13.7969 6.2602 17.3399 5.16141 20.9246 5.38827" stroke="#FFF2E9" stroke-linecap="round" stroke-linejoin="round"/>
<circle cx="2.09157" cy="2.09157" r="2.09157" transform="matrix(-1 0 0 1 22.2217 3.39752)" fill="#0A0A0A" stroke="#FFF2E9" stroke-linecap="round" stroke-linejoin="round"/>
<circle cx="2.09157" cy="2.09157" r="2.09157" transform="matrix(-1 0 0 1 22.2217 32.6796)" fill="#0A0A0A" stroke="#FFF2E9" stroke-linecap="round" stroke-linejoin="round"/>
<circle cx="2.09157" cy="2.09157" r="2.09157" transform="matrix(4.37114e-08 1 1 -4.37114e-08 3.39746 18.0386)" fill="#0A0A0A" stroke="#FFF2E9" stroke-linecap="round" stroke-linejoin="round"/>
<circle cx="2.09157" cy="2.09157" r="2.09157" transform="matrix(4.37114e-08 1 1 -4.37114e-08 32.6792 18.0386)" fill="#0A0A0A" stroke="#FFF2E9" stroke-linecap="round" stroke-linejoin="round"/>
<path d="M14.0002 17.6666L18.4732 20.6487C18.7923 20.8614 19.208 20.8614 19.5271 20.6487L24.0002 17.6666M25.0002 23.6666C25.9206 23.6666 26.6668 22.9205 26.6668 22V17.6666C26.6668 15.8257 25.1744 14.3333 23.3335 14.3333H17.3335C16.413 14.3333 15.6668 15.0795 15.6668 16M15.2335 25.6666H22.7668C23.8162 25.6666 24.6668 24.816 24.6668 23.7666V18.2333C24.6668 17.184 23.8162 16.3333 22.7668 16.3333H15.2335C14.1842 16.3333 13.3335 17.184 13.3335 18.2333V23.7666C13.3335 24.816 14.1842 25.6666 15.2335 25.6666Z" stroke="#E76220" stroke-width="1.33333" stroke-linecap="round" stroke-linejoin="round"/>
<defs>
<linearGradient id="paint0_linear_1181_7445" x1="20.13" y1="5.48914" x2="20.13" y2="34.7712" gradientUnits="userSpaceOnUse">
<stop stop-color="white" stop-opacity="0"/>
<stop offset="1" stop-color="#FF3610"/>
</linearGradient>
</defs>
</svg>
