<svg width="40" height="40" viewBox="0 0 40 40" fill="none" xmlns="http://www.w3.org/2000/svg">
<path d="M20.13 34.7711C12.044 34.7711 5.48897 28.2161 5.48897 20.1301C5.48897 12.0441 12.044 5.48907 20.13 5.48907C28.216 5.48907 34.771 12.0441 34.771 20.1301C34.771 28.2161 28.216 34.7711 20.13 34.7711Z" fill="url(#paint0_linear_1181_7462)" fill-opacity="0.24"/>
<path d="M27.3204 7.3205C30.4311 9.11644 32.773 11.9932 33.9006 15.4035C35.0283 18.8137 34.863 22.5195 33.4362 25.8159C32.0094 29.1122 29.4206 31.769 26.1624 33.2809C22.9042 34.7927 19.204 35.0541 15.7656 34.0153C12.3272 32.9765 9.39066 30.71 7.51462 27.647C5.63858 24.584 4.95396 20.9382 5.59101 17.4033C6.22806 13.8684 8.14232 10.6909 10.9696 8.47554C13.7969 6.26014 17.3399 5.16134 20.9246 5.38821" stroke="#FFF2E9" stroke-linecap="round" stroke-linejoin="round"/>
<circle cx="2.09157" cy="2.09157" r="2.09157" transform="matrix(-1 0 0 1 22.2217 3.39746)" fill="#0A0A0A" stroke="#FFF2E9" stroke-linecap="round" stroke-linejoin="round"/>
<circle cx="2.09157" cy="2.09157" r="2.09157" transform="matrix(-1 0 0 1 22.2217 32.6795)" fill="#0A0A0A" stroke="#FFF2E9" stroke-linecap="round" stroke-linejoin="round"/>
<circle cx="2.09157" cy="2.09157" r="2.09157" transform="matrix(4.37114e-08 1 1 -4.37114e-08 3.39746 18.0385)" fill="#0A0A0A" stroke="#FFF2E9" stroke-linecap="round" stroke-linejoin="round"/>
<circle cx="2.09157" cy="2.09157" r="2.09157" transform="matrix(4.37114e-08 1 1 -4.37114e-08 32.6792 18.0385)" fill="#0A0A0A" stroke="#FFF2E9" stroke-linecap="round" stroke-linejoin="round"/>
<path d="M19.3415 26H14.6665V25.1136C14.6665 23.8714 15.5119 22.7886 16.717 22.4874C17.9033 22.1908 19.1198 22.0575 20.3332 22.0873M22.7934 22.7995L24.3937 24.3998M24.3937 24.3998L25.994 26M24.3937 24.3998L25.994 22.7995M24.3937 24.3998L22.7934 26M24.6665 14.6667C25.4798 15.2166 25.9998 16.0576 25.9998 17C25.9998 17.9424 25.4798 18.7834 24.6665 19.3333M22.9998 17C22.9998 18.6569 21.6567 20 19.9998 20C18.343 20 16.9998 18.6569 16.9998 17C16.9998 15.3431 18.343 14 19.9998 14C21.6567 14 22.9998 15.3431 22.9998 17Z" stroke="#E76220" stroke-width="1.33333" stroke-linecap="round" stroke-linejoin="round"/>
<defs>
<linearGradient id="paint0_linear_1181_7462" x1="20.13" y1="5.48907" x2="20.13" y2="34.7711" gradientUnits="userSpaceOnUse">
<stop stop-color="white" stop-opacity="0"/>
<stop offset="1" stop-color="#FF3610"/>
</linearGradient>
</defs>
</svg>
