<svg width="41" height="41" viewBox="0 0 41 41" fill="none" xmlns="http://www.w3.org/2000/svg">
<path d="M20.13 34.8143C12.044 34.8143 5.48896 28.2593 5.48896 20.1732C5.48896 12.0872 12.044 5.53223 20.13 5.53223C28.216 5.53223 34.771 12.0872 34.771 20.1732C34.771 28.2593 28.216 34.8143 20.13 34.8143Z" fill="url(#paint0_linear_206_3575)" fillOpacity="0.24"/>
<path d="M33.9006 15.4467C32.773 12.0364 30.4311 9.15965 27.3204 7.36371C27.3204 7.36371 25.0005 5.47463 20.9246 5.43142C16.8487 5.38821 13.7969 6.30335 10.9696 8.51875C8.14232 10.7342 6.22806 13.9116 5.59101 17.4465C4.95396 20.9814 5.63858 24.6272 7.51462 27.6902C9.39066 30.7532 12.3272 33.0197 15.7656 34.0585C19.204 35.0973 22.9042 34.8359 26.1624 33.3241C29.4206 31.8122 32.0094 29.1554 33.4362 25.8591C34.863 22.5628 35.0283 18.8569 33.9006 15.4467Z" stroke="#FFF2E9" strokeLinecap="round" strokeLinejoin="round"/>
<circle cx="2.09157" cy="2.09157" r="2.09157" transform="matrix(-1 0 0 1 22.2214 3.44067)" fill="#0A0A0A" stroke="#FFF2E9" strokeLinecap="round" strokeLinejoin="round"/>
<circle cx="2.09157" cy="2.09157" r="2.09157" transform="matrix(-1 0 0 1 22.2214 32.7227)" fill="#0A0A0A" stroke="#FFF2E9" strokeLinecap="round" strokeLinejoin="round"/>
<circle cx="2.09157" cy="2.09157" r="2.09157" transform="matrix(4.37114e-08 1 1 -4.37114e-08 3.39746 18.0817)" fill="#0A0A0A" stroke="#FFF2E9" strokeLinecap="round" strokeLinejoin="round"/>
<circle cx="2.09157" cy="2.09157" r="2.09157" transform="matrix(4.37114e-08 1 1 -4.37114e-08 32.6794 18.0817)" fill="#0A0A0A" stroke="#FFF2E9" strokeLinecap="round" strokeLinejoin="round"/>
<path d="M25.5 15L28 14V16.5" stroke="#FF8637" strokeLinecap="round"/>
<path d="M12 25L13.992 21.8442C14.4241 21.1595 15.4483 21.2454 15.7603 21.9925L15.9479 22.4415C16.2842 23.2466 17.4182 23.265 17.7804 22.4712L19.6849 18.2975C20.0149 17.5743 21.0159 17.5066 21.4403 18.1788L22.3661 19.6456C22.7478 20.2503 23.6224 20.2706 24.0317 19.6843L28 14" stroke="#FF8637" strokeLinecap="round"/>
<defs>
<linearGradient id="paint0_linear_206_3575" x1="20.13" y1="5.53223" x2="20.13" y2="34.8143" gradientUnits="userSpaceOnUse">
<stop stopColor="white" stopOpacity="0"/>
<stop offset="1" stopColor="#FF3610"/>
</linearGradient>
</defs>
</svg>
